<?xml version="1.0" encoding="utf-8"?>
<svg version="1.1" id="Ebene_1" xmlns="http://www.w3.org/2000/svg" xmlns:xlink="http://www.w3.org/1999/xlink" x="0px" y="0px"
	 width="32px" height="32px" viewBox="0 0 32 32" enable-background="new 0 0 32 32" xml:space="preserve">
<g>
	<g>
		<g>
			<path fill="#FFFFFF" d="M30.721,7.5c-0.899,0.851-2.691,1.255-3.838,1.75c-1.262,0.545-2.563,1.023-3.838,1.542
				c-1.281,0.521-2.568,1.032-3.838,1.583c-0.62,0.27-1.622,0.454-2.047,1c-0.289,0.372-0.632,1.102-0.511,1.625
				c0,1.583,0,3.167,0,4.75c0,1.167,0,2.333,0,3.5c0,1.458,0,2.917,0,4.375c0,0.75,0,1.5,0,2.25c0,0.808,0.2,1.424,0.256,2.125
				h1.023c2.445-1.581,5.132-2.681,7.676-4.125c1.252-0.71,2.584-1.418,3.838-2.125C30.675,25.055,32,24.83,32,23.25
				c0-1.5,0-3,0-4.5c0-1.25,0-2.5,0-3.75c0-2.5,0-5,0-7.5H30.721z M28.93,21.125c-0.279,1.004-1.267,1.462-2.047,2.125h-0.512
				c-1.387-0.897-0.864-2.309-0.256-3.5h0.256c-0.091-0.546,0.534-0.535,0.768-1h1.279C28.822,19.466,29.185,20.211,28.93,21.125z
				 M23.301,18.75h-0.256c-0.306,0.542-0.738,0.736-1.279,1h-0.512c-1.051-0.401-0.998-1.796-0.768-2.625
				c0.28-1.003,1.268-1.462,2.047-2.125h0.512C24.713,16.079,23.992,17.397,23.301,18.75z"/>
			<path fill="#FFFFFF" d="M12.299,11.958c-1.193-0.485-2.4-0.948-3.582-1.458C7.527,9.986,6.326,9.514,5.135,9
				c-1.09-0.471-2.41-0.721-3.326-1.5H0.53c-0.583,0.616-0.256,2.314-0.256,3.125c0,1.042,0,2.083,0,3.125c0,1,0,2,0,3s0,2,0,3
				c0,0.792,0,1.583,0,2.375c0,0.808,0.2,1.424,0.256,2.125h0.256c0.549,0.974,2.333,1.64,3.326,2.125
				c1.222,0.597,2.379,1.287,3.582,1.875c2.225,1.087,5.033,2.153,6.908,3.75h1.023c0-2.583,0-5.167,0-7.75c0-0.917,0-1.833,0-2.75
				c0-1.083,0-2.167,0-3.25c0-1.5,0-3,0-4.5C15.051,12.732,13.343,12.383,12.299,11.958z M3.6,24.25
				c-0.167-0.328-0.594-0.678-0.768-0.875c-0.406-0.461-0.585-0.716-0.768-1.25c-0.382-1.121-0.064-1.361,0.512-2.375h0.768
				c0.58,0.493,1.616,0.873,1.535,1.75h0.256c0.105,0.828,0.725,2.278-0.512,2.75H3.6z M8.206,21.5
				c-0.646-0.315-1.865-0.939-1.791-1.75H6.159c-0.073-0.573-0.351-0.962-0.256-1.625c0.094-0.655,0.442-0.802,0.768-1.375h0.768
				c0.574,0.371,1.197,0.905,1.535,1.5h0.256c-0.144,0.568,0.256,1.019,0.256,1.625c0,0.834-0.293,1.153-1.023,1.625H8.206z
				 M13.834,16.125c0.154,0.914-0.098,1.396-0.512,2.125h-1.535c-0.329-0.582-0.949-0.919-1.279-1.5
				c-0.255-0.27-0.512-1.326-0.512-1.625c0,0.237,0.313-0.851,0.256-0.75c0.12-0.214,0.382-0.396,0.512-0.625h1.279
				C12.913,14.313,13.679,15.206,13.834,16.125z"/>
			<path fill="#FFFFFF" d="M2.321,6.5h0.768c0.854,0.727,2.046,0.962,3.07,1.375c1.028,0.415,2.031,0.856,3.07,1.25
				c1.034,0.392,2.035,0.858,3.07,1.25c0.931,0.353,2.35,0.694,3.07,1.375h1.791c0.748-0.708,2.127-0.965,3.07-1.375
				c1.01-0.438,2.041-0.86,3.07-1.25c1.036-0.392,2.037-0.858,3.07-1.25c1.024-0.388,2.227-0.656,3.07-1.375h0.768
				c0.431-0.278,0.906-0.554,0.768-1.125C30.87,4.933,30.34,4.829,29.953,4.5h-0.768C25.28,2.592,20.813,1.91,16.905,0h-1.279
				C11.719,1.909,7.249,2.592,3.344,4.5H2.577C1.459,5.046,1.135,5.733,2.321,6.5z M17.928,4.5c0.431,0.278,0.906,0.554,0.768,1.125
				c-0.106,0.442-0.637,0.546-1.023,0.875h-3.07c-1.174-0.759-1.174-1.241,0-2H17.928z"/>
		</g>
	</g>
</g>
</svg>
