<?xml version="1.0" encoding="UTF-8" standalone="no"?>
<svg
   xmlns:dc="http://purl.org/dc/elements/1.1/"
   xmlns:cc="http://creativecommons.org/ns#"
   xmlns:rdf="http://www.w3.org/1999/02/22-rdf-syntax-ns#"
   xmlns:svg="http://www.w3.org/2000/svg"
   xmlns="http://www.w3.org/2000/svg"
   xmlns:sodipodi="http://sodipodi.sourceforge.net/DTD/sodipodi-0.dtd"
   xmlns:inkscape="http://www.inkscape.org/namespaces/inkscape"
   width="32"
   height="32"
   id="svg3771"
   version="1.1"
   inkscape:version="0.48.5 r10040"
   sodipodi:docname="icon_home.svg">
  <defs
     id="defs3773">
    <inkscape:perspective
       sodipodi:type="inkscape:persp3d"
       inkscape:vp_x="4.4657228 : 9.0984285 : 1"
       inkscape:vp_y="0 : 1000 : 0"
       inkscape:vp_z="30.037788 : 10.722328 : 1"
       inkscape:persp3d-origin="16 : 10.666667 : 1"
       id="perspective4471" />
  </defs>
  <sodipodi:namedview
     id="base"
     pagecolor="#ffffff"
     bordercolor="#666666"
     borderopacity="1.0"
     inkscape:pageopacity="0"
     inkscape:pageshadow="2"
     inkscape:zoom="14.779243"
     inkscape:cx="15.77116"
     inkscape:cy="15.789626"
     inkscape:document-units="px"
     inkscape:current-layer="layer1"
     showgrid="true"
     showguides="false"
     inkscape:guide-bbox="true"
     inkscape:window-width="1366"
     inkscape:window-height="698"
     inkscape:window-x="-6"
     inkscape:window-y="-6"
     inkscape:window-maximized="1"
     inkscape:snap-global="true">
    <inkscape:grid
       type="xygrid"
       id="grid4507"
       empspacing="5"
       visible="true"
       enabled="true"
       snapvisiblegridlinesonly="true" />
  </sodipodi:namedview>
  <metadata
     id="metadata3776">
    <rdf:RDF>
      <cc:Work
         rdf:about="">
        <dc:format>image/svg+xml</dc:format>
        <dc:type
           rdf:resource="http://purl.org/dc/dcmitype/StillImage" />
        <dc:title></dc:title>
      </cc:Work>
    </rdf:RDF>
  </metadata>
  <g
     inkscape:label="Layer 1"
     inkscape:groupmode="layer"
     id="layer1"
     transform="translate(0,-1020.3622)">
    <path
       d="M 15.998527,1020.3622 C 7.1643697,1020.3622 0,1027.7069 0,1036.7676 c 0,7.247 4.5840572,13.3963 10.942018,15.5666 0.800516,0.15 1.092237,-0.3565 1.092237,-0.7916 0,-0.3898 -0.01375,-1.421 -0.02161,-2.7896 -4.450474,0.9909 -5.3894838,-2.1995 -5.3894838,-2.1995 -0.7278309,-1.8953 -1.7768502,-2.3999 -1.7768502,-2.3999 -1.4527149,-1.0172 0.1100096,-0.997 0.1100096,-0.997 1.6059424,0.1158 2.4506584,1.6909 2.4506584,1.6909 1.427177,2.5066 3.745235,1.7825 4.656742,1.3625 0.14537,-1.0594 0.558888,-1.7825 1.015624,-2.1923 -3.5527184,-0.415 -7.2881308,-1.8219 -7.2881308,-8.1081 0,-1.7916 0.6237147,-3.2549 1.647196,-4.4019 -0.1650142,-0.415 -0.7140796,-2.0827 0.1571565,-4.3416 0,0 1.3427054,-0.4411 4.3993983,1.6808 1.275914,-0.3636 2.64514,-0.5448 4.005525,-0.5518 1.359403,0.01 2.727647,0.1882 4.005525,0.5518 3.054729,-2.1219 4.39547,-1.6808 4.39547,-1.6808 0.8732,2.2589 0.324135,3.9266 0.160103,4.3416 1.025446,1.147 1.644249,2.6103 1.644249,4.4019 0,6.3023 -3.741306,7.6891 -7.304828,8.0949 0.573621,0.5066 1.085362,1.5077 1.085362,3.0384 0,2.1924 -0.01965,3.9619 -0.01965,4.4997 0,0.4391 0.288775,0.9496 1.100095,0.7896 6.35305,-2.1744 10.933178,-8.3186 10.933178,-15.5646 0,-9.0607 -7.16437,-16.4054 -16.001473,-16.4054"
       style="fill:#ffffff;fill-opacity:1;fill-rule:evenodd;stroke:none;stroke-opacity:1"
       id="path4561"
       inkscape:connector-curvature="0" />
  </g>
</svg>
