<?xml version="1.0" encoding="UTF-8" standalone="no"?>
<svg
   xmlns:dc="http://purl.org/dc/elements/1.1/"
   xmlns:cc="http://creativecommons.org/ns#"
   xmlns:rdf="http://www.w3.org/1999/02/22-rdf-syntax-ns#"
   xmlns:svg="http://www.w3.org/2000/svg"
   xmlns="http://www.w3.org/2000/svg"
   version="1.1"
   width="32"
   height="32"
   id="svg2985">
  <defs
     id="defs2987" />
  <metadata
     id="metadata2990">
    <rdf:RDF>
      <cc:Work
         rdf:about="">
        <dc:format>image/svg+xml</dc:format>
        <dc:type
           rdf:resource="http://purl.org/dc/dcmitype/StillImage" />
        <dc:title></dc:title>
      </cc:Work>
    </rdf:RDF>
  </metadata>
  <g
     id="layer1">
    <path
       d="M 14.59375,0 12.875,3.53125 9.71875,1.21875 9.1875,5.125 5.4375,3.90625 6.15625,7.75 l -3.9375,0 1.875,3.4375 -3.75,1.21875 L 3.1875,15.125 0,17.40625 3.53125,19.125 1.21875,22.28125 5.125,22.8125 3.90625,26.5625 7.75,25.84375 l 0,3.9375 3.4375,-1.875 1.21875,3.75 L 15.125,28.8125 17.40625,32 19.125,28.46875 l 3.15625,2.3125 0.53125,-3.90625 3.75,1.21875 -0.71875,-3.84375 3.9375,0 -1.875,-3.4375 3.75,-1.21875 L 28.8125,16.875 32,14.59375 28.46875,12.875 30.78125,9.71875 26.875,9.1875 28.09375,5.4375 24.25,6.15625 l 0,-3.9375 -3.4375,1.875 -1.21875,-3.75 L 16.875,3.1875 14.59375,0 z M 4,12 l 1.4375,0 3.4375,6.6875 0,-6.6875 1.03125,0 0,8 L 8.5,20 5.03125,13.3125 5.03125,20 4,20 4,12 z m 8.03125,0 4.9375,0 0,0.90625 -3.90625,0 0,2.375 3.75,0 0,0.90625 -3.75,0 0,2.90625 4,0 0,0.90625 -5.03125,0 0,-8 z m 6.0625,0 1.09375,0 1.625,6.75 1.65625,-6.75 1.1875,0 1.625,6.75 L 26.9375,12 28,12 26.03125,20 24.71875,20 23.0625,13.0625 21.40625,20 20.0625,20 18.09375,12 z"
       id="path2995"
       style="fill:#ffffff" />
  </g>
</svg>

