<?xml version="1.0" encoding="utf-8"?>
<svg version="1.1" id="x" xmlns="http://www.w3.org/2000/svg" xmlns:xlink="http://www.w3.org/1999/xlink" x="0px" y="0px"
	 width="76px" height="51px" xml:space="preserve">
<g>
	<path fill="#FFFFFF" d="M16.353,21.489v2.977H6.032V6.008h55.4l-0.969,2.976H9.583v4.465h6.025v2.904H9.583v5.137H16.353z"/>
	<path fill="#FFFFFF" d="M27.978,11.12h3.096c-0.072,0.96-0.119,2.137-0.119,3.984v7.537c0,2.615-0.24,7.465-6.746,7.465
		c-1.559,0-3.168-0.313-4.225-0.912l0.697-2.713c0.791,0.432,2.039,0.865,3.455,0.865c1.992,0,3.313-1.129,3.313-3.697v-0.984
		h-0.047c-0.672,1.057-1.873,1.704-3.336,1.704c-3.17,0-5.162-2.856-5.162-6.505c0-4.416,2.568-7.032,5.521-7.032
		c1.68,0,2.76,0.816,3.359,1.872h0.049L27.978,11.12z M27.402,16.305c0-1.704-1.033-2.688-2.232-2.688
		c-1.607,0-2.688,1.633-2.688,4.152c0,2.328,0.982,3.912,2.664,3.912c0.814,0,2.256-0.527,2.256-2.783V16.305z"/>
	<path fill="#FFFFFF" d="M42.521,11.12h3.098c-0.072,0.96-0.121,2.137-0.121,3.984v7.537c0,2.615-0.24,7.465-6.744,7.465
		c-1.561,0-3.168-0.313-4.225-0.912l0.695-2.713c0.793,0.432,2.041,0.865,3.457,0.865c1.992,0,3.313-1.129,3.313-3.697v-0.984
		h-0.049c-0.672,1.057-1.871,1.704-3.336,1.704c-3.168,0-5.16-2.856-5.16-6.505c0-4.416,2.568-7.032,5.52-7.032
		c1.682,0,2.762,0.816,3.361,1.872h0.047L42.521,11.12z M41.945,16.305c0-1.704-1.031-2.688-2.232-2.688
		c-1.607,0-2.688,1.633-2.688,4.152c0,2.328,0.984,3.912,2.664,3.912c0.816,0,2.256-0.527,2.256-2.783V16.305z"/>
	<path fill="#FFFFFF" d="M56.082,11.097h3.695l-3.023,9.288c-1.488,4.321-2.618,6.673-4.129,8.185
		c-1.295,1.248-2.664,1.729-3.455,1.873l-0.889-3c0.576-0.168,1.248-0.553,1.871-0.984c1.178-0.84,1.777-2.209,1.777-2.473
		c0-0.145-0.049-0.336-0.145-0.6l-4.488-12.289h3.889l1.969,6.984c0.215,0.816,0.455,1.752,0.623,2.496h0.072
		c0.145-0.721,0.359-1.656,0.553-2.496L56.082,11.097z"/>
	<path fill="#FFFFFF" d="M67.203,3.919C66.578,5.6,65.93,7.592,65.594,9.416l-3.287,0.216c0.863-1.968,2.135-4.152,3.119-5.545
		L67.203,3.919z"/>
	<path fill="#FFFFFF" d="M61.336,21.249c0.697,0.408,2.018,0.889,3.121,0.889c1.248,0,1.848-0.529,1.848-1.345
		s-0.455-1.248-1.92-1.872c-2.496-1.008-3.408-2.424-3.408-3.889c0-2.4,1.92-4.225,4.896-4.225c1.367,0,2.545,0.336,3.313,0.744
		l-0.672,2.496c-0.576-0.312-1.512-0.695-2.521-0.695c-1.08,0-1.654,0.552-1.654,1.271c0,0.744,0.504,1.129,2.039,1.777
		c2.256,0.936,3.313,2.231,3.313,4.08c0,2.544-1.92,4.225-5.256,4.225c-1.465,0-2.881-0.361-3.77-0.889L61.336,21.249z"/>
	<path fill="#FFFFFF" d="M6.032,26.509c1.057-0.216,2.881-0.384,4.681-0.384c2.232,0,3.816,0.288,5.089,1.177
		c1.104,0.744,1.8,1.967,1.8,3.48c0,1.68-0.984,3.24-2.952,3.984v0.096c2.064,0.527,3.601,2.16,3.601,4.512
		c0,1.441-0.601,2.832-1.681,3.793c-1.248,1.127-3.313,1.729-6.601,1.729c-1.752,0-3.072-0.121-3.937-0.24V26.509z M9.56,33.782
		h1.297c2.016,0,3.216-1.08,3.216-2.592c0-1.824-1.368-2.426-2.952-2.426c-0.769,0-1.248,0.049-1.561,0.121V33.782z M9.56,36.374
		v5.76c0.36,0.072,0.792,0.096,1.416,0.096c1.921,0,3.553-0.863,3.553-2.951c0-2.137-1.824-2.904-3.648-2.904H9.56z"/>
	<path fill="#FFFFFF" d="M32.505,37.935c0,5.088-3.265,7.057-6.241,7.057c-3.6,0-6.192-2.545-6.192-6.889
		c0-4.488,2.713-7.033,6.337-7.033C30.153,31.069,32.505,33.878,32.505,37.935z M26.336,33.687c-1.968,0-2.664,2.303-2.664,4.344
		c0,2.377,0.912,4.344,2.641,4.344c1.68,0,2.592-1.992,2.592-4.367C28.905,35.919,28.161,33.687,26.336,33.687z"/>
	<path fill="#FFFFFF" d="M46.737,37.935c0,5.088-3.265,7.057-6.241,7.057c-3.6,0-6.192-2.545-6.192-6.889
		c0-4.488,2.713-7.033,6.337-7.033C44.384,31.069,46.737,33.878,46.737,37.935z M40.568,33.687c-1.968,0-2.664,2.303-2.664,4.344
		c0,2.377,0.912,4.344,2.641,4.344c1.68,0,2.592-1.992,2.592-4.367C43.136,35.919,42.392,33.687,40.568,33.687z"/>
	<path fill="#FFFFFF" d="M52.497,33.687c0.624-1.729,2.063-2.617,3.312-2.617c0.336,0,0.553,0.023,0.791,0.072v3.385
		c-0.264-0.049-0.551-0.072-0.91-0.072c-1.609,0-2.833,1.08-2.833,3.359v6.912h-3.552v-9.191c0-1.656-0.048-2.977-0.097-4.176h3.049
		l0.144,2.328H52.497z"/>
	<path fill="#FFFFFF" d="M69.848,31.358v9.287c0,1.584,0.072,2.953,0.121,4.08h-3.096l-0.168-1.775h-0.072
		c-0.553,0.863-1.777,2.041-3.842,2.041c-2.543,0-4.271-1.656-4.271-5.664v-7.969h3.553v7.439c0,2.018,0.576,3.289,2.039,3.289
		c1.152,0,2.186-0.984,2.186-2.496v-8.232H69.848z"/>
</g>
</svg>
