<?xml version="1.0" encoding="UTF-8" standalone="no"?>
<svg
   xmlns:dc="http://purl.org/dc/elements/1.1/"
   xmlns:cc="http://creativecommons.org/ns#"
   xmlns:rdf="http://www.w3.org/1999/02/22-rdf-syntax-ns#"
   xmlns:svg="http://www.w3.org/2000/svg"
   xmlns="http://www.w3.org/2000/svg"
   xmlns:sodipodi="http://sodipodi.sourceforge.net/DTD/sodipodi-0.dtd"
   xmlns:inkscape="http://www.inkscape.org/namespaces/inkscape"
   width="32"
   height="32"
   id="svg3771"
   version="1.1"
   inkscape:version="0.48.5 r10040"
   sodipodi:docname="icon_github.svg">
  <defs
     id="defs3773">
    <inkscape:perspective
       sodipodi:type="inkscape:persp3d"
       inkscape:vp_x="4.4657228 : 9.0984285 : 1"
       inkscape:vp_y="0 : 1000 : 0"
       inkscape:vp_z="30.037788 : 10.722328 : 1"
       inkscape:persp3d-origin="16 : 10.666667 : 1"
       id="perspective4471" />
  </defs>
  <sodipodi:namedview
     id="base"
     pagecolor="#ffffff"
     bordercolor="#666666"
     borderopacity="1.0"
     inkscape:pageopacity="0"
     inkscape:pageshadow="2"
     inkscape:zoom="14.779243"
     inkscape:cx="15.77116"
     inkscape:cy="15.789626"
     inkscape:document-units="px"
     inkscape:current-layer="layer1"
     showgrid="true"
     showguides="false"
     inkscape:guide-bbox="true"
     inkscape:window-width="1366"
     inkscape:window-height="698"
     inkscape:window-x="-6"
     inkscape:window-y="-6"
     inkscape:window-maximized="1"
     inkscape:snap-global="true">
    <inkscape:grid
       type="xygrid"
       id="grid4507"
       empspacing="5"
       visible="true"
       enabled="true"
       snapvisiblegridlinesonly="true" />
  </sodipodi:namedview>
  <metadata
     id="metadata3776">
    <rdf:RDF>
      <cc:Work
         rdf:about="">
        <dc:format>image/svg+xml</dc:format>
        <dc:type
           rdf:resource="http://purl.org/dc/dcmitype/StillImage" />
        <dc:title></dc:title>
      </cc:Work>
    </rdf:RDF>
  </metadata>
  <g
     inkscape:label="Layer 1"
     inkscape:groupmode="layer"
     id="layer1"
     transform="translate(0,-1020.3622)">
    <g
       transform="matrix(0.0625,0,0,0.0625,0,1020.3622)"
       id="g3"
       style="fill:#ffffff;fill-opacity:1">
      <path
         inkscape:connector-curvature="0"
         d="M 446.844,208.875 C 447.625,203.313 448,197.656 448,192 448,121.437 390.594,64 320,64 279.062,64 241.469,83.344 217.656,115.063 209.25,113.031 200.688,112 192,112 130.25,112 80,162.25 80,224 c 0,1.563 0.031,3.094 0.094,4.625 C 33.813,242.375 0,285.313 0,336 0,397.75 50.25,448 112,448 h 272 c 70.594,0 128,-57.406 128,-128 0,-46.656 -25.656,-88.812 -65.156,-111.125 z M 384,416 H 112 c -44.188,0 -80,-35.813 -80,-80 0,-44.187 35.813,-80 80,-80 2.438,0 4.75,0.5 7.125,0.719 -4.5,-10 -7.125,-21.031 -7.125,-32.719 0,-44.188 35.813,-80 80,-80 14.438,0 27.813,4.125 39.5,10.813 C 246,120.25 280.156,96 320,96 c 53.031,0 96,42.969 96,96 0,12.625 -2.594,24.625 -7.031,35.688 40.844,11.062 71.031,48 71.031,92.312 0,53.031 -42.969,96 -96,96 z"
         id="path5"
         style="fill:#ffffff;fill-opacity:1" />
      <polygon
         points="224,384 288,384 288,288 352,288 256,192 160,288 224,288 "
         id="polygon7"
         style="fill:#ffffff;fill-opacity:1" />
    </g>
  </g>
</svg>
